# xmcd
#
# Track frame offsets: 
#        180
#        11984
#        24740
#        39965
#        56613
#        71760
#        83986
#        100859
#        113986
#        130312
#
# Disc length: 1984 seconds
#
# Revision: 0
# Processed by: cddbd v1.5.2PL0 Copyright (c) Steve Scherf et al.
# Submitted via: ExactAudioCopy v0.99pb5
#
DISCID=8707be0a
DTITLE=Ray Clemens College Band - Riwwersaid
DYEAR=1900
DGENRE=Big Band
TTITLE0=Hamburger Rag
TTITLE1=The Darktown Strutter's Ball
TTITLE2=Screwball
TTITLE3=Down by the Riverside
TTITLE4=After you've gone
TTITLE5=Jabberwocky
TTITLE6=Basin Street Blues
TTITLE7=Who's sorry now?
TTITLE8=Clarinet Marmalade
TTITLE9=Ice Cream
EXTD=
EXTT0=
EXTT1=
EXTT2=
EXTT3=
EXTT4=
EXTT5=
EXTT6=
EXTT7=
EXTT8=
EXTT9=
PLAYORDER=
